<svg xmlns="http://www.w3.org/2000/svg" width="512" height="512" viewBox="0 0 512 512" version="1.1">
	<path d="M 218.978 59.773 C 186.815 78.348, 155.775 96.777, 150 100.726 C 73.409 153.103, 46.453 253.298, 86.496 336.773 C 110.243 386.276, 154.440 423.199, 206.500 437.025 C 225.496 442.070, 235.625 443.341, 256.500 443.299 C 271.193 443.269, 278.103 442.792, 286.982 441.195 C 293.297 440.060, 298.531 439.214, 298.614 439.315 C 298.696 439.417, 283.516 448.275, 264.880 459 C 244.267 470.863, 230.761 479.229, 230.395 480.362 C 230.051 481.430, 230.462 482.890, 231.360 483.789 C 232.625 485.054, 233.407 485.136, 235.428 484.215 C 236.804 483.588, 259.658 470.536, 286.215 455.211 C 312.772 439.885, 339.450 424.550, 345.500 421.132 C 407.253 386.247, 444 324.456, 444 255.500 C 444 194.265, 413.044 135.609, 362.500 101.073 C 330.290 79.065, 294.660 68, 256 68 C 243.922 68, 225.579 69.840, 216.528 71.959 C 214.344 72.471, 212.425 72.759, 212.266 72.599 C 212.106 72.439, 227.507 63.352, 246.490 52.404 C 266.627 40.791, 281.246 31.751, 281.584 30.702 C 282.213 28.758, 280.466 26, 278.605 26 C 277.973 26, 251.141 41.198, 218.978 59.773 M 237 76.051 C 205.804 79.932, 175.329 91.518, 151 108.747 C 138.837 117.360, 117.458 138.755, 108.769 151.008 C 100.357 162.871, 89.092 185.202, 84.561 199 C 60.236 273.073, 85.736 354.113, 147.932 400.401 C 169.713 416.611, 192.977 427.029, 221.120 433.177 C 230.332 435.189, 234.256 435.444, 256 435.444 C 277.748 435.444, 281.679 435.188, 291 433.168 C 330.402 424.627, 366.393 403.869, 391.532 375.185 C 433.912 326.828, 447.508 260.115, 427.439 199 C 422.908 185.202, 411.643 162.871, 403.231 151.008 C 394.542 138.755, 373.163 117.360, 361 108.747 C 340.472 94.209, 311.682 82.176, 287.230 77.915 C 273.762 75.567, 248.441 74.628, 237 76.051 M 242.500 140.299 C 236.106 143.365, 231.577 148.006, 227.878 155.283 C 226.261 158.463, 210.266 198.288, 192.334 243.783 C 161.906 320.979, 159.698 327.002, 159.250 334.021 C 158.781 341.358, 158.853 341.652, 162.181 346.015 C 167.005 352.340, 172.075 354.964, 179.500 354.980 C 192.371 355.007, 194.474 351.790, 211.030 306.750 L 213.144 301 255.441 301 L 297.738 301 302.509 313.750 C 309.723 333.033, 315.647 346.016, 318.729 349.296 C 322.421 353.227, 326.860 355, 333.008 355 C 342.014 355, 350.726 348.444, 353.015 339.945 C 355.167 331.951, 356.668 336.152, 313.565 229.500 C 301.117 198.700, 289.973 171.025, 288.800 168 C 282.992 153.026, 277.979 145.830, 270.162 141.249 C 266.309 138.991, 264.190 138.522, 256.549 138.238 C 248.640 137.943, 246.870 138.203, 242.500 140.299 M 239.397 226.517 L 224.295 269 255.254 269 C 279.597 269, 286.117 268.733, 285.760 267.750 C 285.511 267.063, 278.600 247.945, 270.403 225.267 C 262.207 202.588, 255.275 184.033, 255 184.033 C 254.725 184.033, 247.704 203.151, 239.397 226.517" stroke="none" fill="black" fill-rule="evenodd"/>
</svg>